<?xml version="1.0" encoding="utf-8"?>
<!-- Generator: Adobe Illustrator 15.1.0, SVG Export Plug-In . SVG Version: 6.00 Build 0)  -->
<!DOCTYPE svg PUBLIC "-//W3C//DTD SVG 1.1//EN" "http://www.w3.org/Graphics/SVG/1.1/DTD/svg11.dtd">
<svg version="1.1" id="Layer_1" xmlns="http://www.w3.org/2000/svg" width="200" height="145">
		<path id="SVGID_3_" d="M99.08,11.502l5.769,5.767c-0.16,0.098-0.312,0.21-0.447,0.345l-3.465,3.465l-5.718-5.717
			c0.003,0,0.003,0,0.005-0.001c-2.167,0.74-4.66,0.253-6.388-1.475c-1.727-1.729-2.215-4.218-1.477-6.385l4.143,4.145l2.039,0.107
			l1.93-1.93l-0.107-2.037L91.218,3.64c2.167-0.738,4.657-0.25,6.385,1.477c1.73,1.73,2.215,4.229,1.473,6.397
			C99.078,11.509,99.08,11.505,99.08,11.502L99.08,11.502z M121.033,17.407l-1.986-1.988l0.358-0.358l-0.014-0.013
			c0.045-0.037,0.095-0.067,0.137-0.112c0.717-0.715,0.82-1.803,0.325-2.635c-0.823,0.368-1.757,0.407-2.604,0.11l-8.196,8.198
			l-1.438-1.435l1.354,1.355c0.459,0.455,0.459,1.196,0,1.655L92.738,38.415c-0.457,0.457-1.2,0.457-1.655,0l-1.988-1.988
			c-0.458-0.457-0.458-1.198,0-1.655l16.231-16.233c0.457-0.457,1.197-0.457,1.655,0l-0.081-0.082l8.198-8.198
			c-0.304-0.867-0.257-1.827,0.14-2.664c-0.045-0.052-0.09-0.104-0.14-0.153c-1.544-1.543-3.892-1.778-5.688-0.72
			c0.196-0.333,0.434-0.65,0.72-0.937c1.828-1.83,4.797-1.83,6.627,0c0.047,0.047,0.088,0.1,0.132,0.148
			c0,0.001-0.002,0.001-0.002,0.001c1.309-0.63,2.925-0.406,4.01,0.679c1.062,1.063,1.297,2.633,0.717,3.925
			c0.832,0.497,1.92,0.394,2.639-0.322c0.041-0.043,0.071-0.091,0.109-0.137l0.012,0.012l0.358-0.36l1.988,1.988L121.033,17.407
			L121.033,17.407z M122.28,34.752l-4.146-4.144l-2.038-0.108l-1.932,1.93l0.11,2.039l4.145,4.145
			c-2.167,0.736-4.658,0.248-6.385-1.479c-1.74-1.74-2.222-4.257-1.46-6.435c-0.002,0.005-0.005,0.008-0.007,0.013l-4.14-4.142
			l3.466-3.465c0.136-0.135,0.249-0.285,0.347-0.443l4.216,4.213c2.156-0.718,4.63-0.225,6.345,1.492
			C122.528,30.095,123.017,32.587,122.28,34.752L122.28,34.752z M77.172,139.342v1.289h-5.304v-8.605h5.172v1.289h-3.645v2.197
			h3.092v1.291h-3.092v2.539H77.172L77.172,139.342z M81.9,135.156c-0.645,0-0.948,0.305-0.948,0.711
			c0,0.502,0.645,0.711,1.343,0.961c0.882,0.328,1.855,0.75,1.855,1.961c0,1.105-0.881,2-2.513,2c-0.882,0-1.817-0.383-2.448-0.895
			l0.711-0.975c0.579,0.449,1.132,0.725,1.789,0.725c0.698,0,1.028-0.33,1.028-0.775c0-0.541-0.698-0.777-1.383-1.041
			c-0.855-0.316-1.815-0.803-1.815-1.881c0-1.133,0.906-1.936,2.355-1.936c0.895,0,1.618,0.369,2.145,0.777l-0.697,0.922
			C82.874,135.381,82.413,135.156,81.9,135.156L81.9,135.156z M88.31,138.447c0,0.764,0.29,1.131,0.908,1.131
			c0.223,0,0.487-0.066,0.672-0.145l0.263,1.119c-0.355,0.117-0.803,0.236-1.317,0.236c-1.5,0-2.051-0.947-2.051-2.342v-3.08h-0.922
			v-1.133l1-0.064l0.184-1.764h1.263v1.764h1.645v1.197H88.31V138.447L88.31,138.447z M93.34,140.789
			c-0.553,0-0.986-0.434-0.986-1.027c0-0.592,0.433-1.025,0.986-1.025c0.552,0,0.974,0.434,0.974,1.025
			C94.313,140.355,93.892,140.789,93.34,140.789L93.34,140.789z M106.108,139.342v1.289h-5.658v-0.881
			c2.33-2.252,3.79-3.725,3.79-5.002c0-0.881-0.487-1.445-1.382-1.445c-0.646,0-1.185,0.432-1.632,0.932l-0.842-0.84
			c0.764-0.816,1.527-1.291,2.672-1.291c1.604,0,2.644,1.014,2.644,2.566c0,1.486-1.38,3.014-3.04,4.764
			c0.435-0.039,0.988-0.092,1.395-0.092H106.108L106.108,139.342z M111.125,140.789c-1.736,0-2.842-1.555-2.842-4.383
			s1.105-4.303,2.842-4.303c1.738,0,2.844,1.486,2.844,4.303C113.969,139.234,112.863,140.789,111.125,140.789L111.125,140.789z
			 M111.125,133.289c-0.802,0-1.395,0.75-1.395,3.117c0,2.369,0.593,3.199,1.395,3.199c0.816,0,1.395-0.83,1.395-3.199
			C112.52,134.039,111.941,133.289,111.125,133.289L111.125,133.289z M116.538,140.631v-1.236h1.868v-5.5h-1.54v-0.947
			c0.83-0.158,1.409-0.369,1.936-0.686h1.132v7.133h1.645v1.236H116.538L116.538,140.631z M126.74,140.789
			c-1.737,0-2.842-1.555-2.842-4.383s1.104-4.303,2.842-4.303c1.738,0,2.843,1.486,2.843,4.303
			C129.583,139.234,128.479,140.789,126.74,140.789L126.74,140.789z M126.74,133.289c-0.802,0-1.394,0.75-1.394,3.117
			c0,2.369,0.592,3.199,1.394,3.199c0.816,0,1.396-0.83,1.396-3.199C128.137,134.039,127.557,133.289,126.74,133.289L126.74,133.289
			z M8.84,120.205c-2.06-21.793-4.113-43.588-6.178-65.38c2.718-0.258,4.08-0.382,6.8-0.622c1.917,21.806,3.836,43.613,5.751,65.419
			C12.663,119.848,11.388,119.965,8.84,120.205L8.84,120.205z M36.685,117.975c-0.422-2.98-0.635-4.471-1.06-7.451
			c-2.005,0.131-3.007,0.201-5.01,0.346c-0.014,3.01-0.022,4.516-0.03,7.525c-2.365,0.172-3.547,0.26-5.908,0.443
			c0.017-21.963,0.143-43.928,0.396-65.889c3.485-0.253,5.227-0.374,8.712-0.597c3.236,21.724,6.367,43.462,9.375,65.22
			C40.57,117.723,39.275,117.805,36.685,117.975L36.685,117.975z M33.663,96.928c-1.448-10.057-3.517-28.726-3.517-28.726
			c-0.008,0.002,0.698,18.761,0.547,28.929c-0.042,3.238-0.06,4.857-0.098,8.096c1.673-0.117,2.51-0.176,4.183-0.287
			C34.335,101.734,34.11,100.133,33.663,96.928L33.663,96.928z M52.637,117.059c-1.073-21.865-2.148-43.729-3.225-65.593
			c2.727-0.133,4.092-0.198,6.818-0.315c0.93,21.871,1.862,43.744,2.793,65.617C56.47,116.875,55.19,116.934,52.637,117.059
			L52.637,117.059z M80.723,116.082c-1.815-11.598-2.745-17.395-4.655-28.984c-0.792-4.674-2.462-16.269-2.462-16.269
			c-0.005,0,0.895,11.802,1.014,16.396c0.3,11.592,0.448,17.391,0.748,28.982c-2.218,0.057-3.327,0.09-5.543,0.16
			c-0.682-21.881-1.38-43.762-2.068-65.642c3.41-0.108,5.115-0.155,8.523-0.235c1.487,8.675,2.219,13.015,3.65,21.693
			c0.68,4.396,2.267,16.377,2.267,16.377c0.006,0-0.809-11.996-0.895-16.59c-0.164-8.63-0.244-12.948-0.407-21.577
			c2.327-0.045,3.488-0.063,5.816-0.095c0.29,21.889,0.585,43.778,0.872,65.667C84.84,116.004,83.468,116.027,80.723,116.082
			L80.723,116.082z M114.587,72.727c-2.514-0.035-3.769-0.047-6.282-0.066c0.047-6.153,0.07-9.231,0.117-15.387
			c0.012-1.407-0.582-2.162-1.88-2.17c-1.398-0.007-2,0.74-2.007,2.148c-0.01,2.89-0.017,4.333-0.028,7.223
			c-0.062,15.761,9.946,17.82,9.698,36.019c-0.042,3.002-0.063,4.502-0.104,7.504c-0.082,5.912-2.937,8.582-8.196,8.553
			c-5.165-0.029-7.99-2.732-8.007-8.645c-0.019-6.566-0.027-9.85-0.045-16.416c2.428-0.006,3.644-0.006,6.07,0.004
			c-0.023,6.941-0.035,10.414-0.059,17.355c-0.005,1.408,0.56,2.156,1.882,2.162c1.323,0.008,1.895-0.732,1.904-2.141
			c0.027-3.717,0.042-5.574,0.068-9.289c0.112-15.666-9.893-17.754-9.943-35.954c-0.005-2.177-0.008-3.265-0.014-5.441
			c-0.017-5.91,2.989-8.65,8.51-8.62c5.62,0.032,8.593,2.803,8.512,8.713C114.705,64.059,114.665,66.949,114.587,72.727
			L114.587,72.727z M142.316,81.469c-0.271,6.561-4.771,7.785-8.925,7.65c-0.696-0.023-1.042-0.033-1.738-0.055
			c-0.338,10.914-0.509,16.371-0.847,27.285c-2.594-0.08-3.89-0.115-6.483-0.18c0.535-21.885,1.065-43.768,1.602-65.653
			c3.49,0.085,5.237,0.135,8.726,0.25c4.312,0.142,8.868,1.642,8.593,8.296C142.872,68.025,142.687,72.507,142.316,81.469
			L142.316,81.469z M134.267,56.293c-0.639-0.021-0.955-0.032-1.595-0.052c-0.339,10.877-0.509,16.317-0.846,27.196
			c0.622,0.02,0.934,0.027,1.556,0.047c1.555,0.053,2.155-0.49,2.21-2.084c0.316-9.113,0.477-13.67,0.795-22.784
			C136.441,57.022,135.863,56.345,134.267,56.293L134.267,56.293z M159.823,117.684c-0.043-3.01-0.064-4.516-0.11-7.525
			c-2.005-0.121-3.012-0.18-5.017-0.291c-0.393,2.986-0.586,4.48-0.975,7.467c-2.366-0.131-3.55-0.191-5.917-0.307
			c2.785-21.787,5.677-43.561,8.697-65.314c3.488,0.188,5.229,0.287,8.717,0.503c0.473,21.961,0.835,43.922,1.078,65.883
			C163.707,117.926,162.413,117.842,159.823,117.684L159.823,117.684z M156.509,96.25c-0.45,3.207-0.677,4.811-1.122,8.02
			c1.675,0.092,2.512,0.143,4.187,0.242c-0.035-3.234-0.055-4.855-0.093-8.09c-0.169-10.16,0.128-28.938,0.128-28.938
			C159.6,67.482,157.94,86.182,156.509,96.25L156.509,96.25z M197.693,62.762c-1.56,16.502-3.118,33.004-4.68,49.506
			c-0.627,6.631-5.059,7.531-9.089,7.184c-3.262-0.279-4.894-0.41-8.156-0.662c1.687-21.826,3.376-43.654,5.068-65.48
			c3.481,0.27,5.225,0.414,8.705,0.711C193.844,54.39,198.32,56.132,197.693,62.762L197.693,62.762z M188.868,59.519
			c-0.637-0.055-0.955-0.08-1.593-0.135c-1.525,18.136-3.051,36.272-4.575,54.409c0.604,0.051,0.906,0.078,1.51,0.129
			c1.509,0.129,2.225-0.467,2.365-2.055c1.463-16.635,2.922-33.27,4.383-49.905C191.099,60.374,190.46,59.655,188.868,59.519
			L188.868,59.519z M161.787,136.824l1.716,5.287l-4.496-3.268l-4.498,3.268l1.718-5.287l-4.498-3.268h5.56l1.719-5.287l1.718,5.287
			h5.559L161.787,136.824L161.787,136.824z M44.688,136.824l1.718,5.287l-4.499-3.268l-4.498,3.268l1.718-5.287l-4.497-3.268h5.558
			l1.718-5.287l1.718,5.287h5.559L44.688,136.824L44.688,136.824z" class="site--logo"/>
</svg>
